<svg width="120" height="60" viewBox="0 0 120 60" fill="none" xmlns="http://www.w3.org/2000/svg">
<path d="M31.093 29.9481C26.7024 35.9124 20.1844 44.6585 12.361 45.3739C5.18736 46.0299 0.672306 39.5182 0.0967815 33.0042C-1.22519 18.0417 11.1694 1.3557 26.6485 0.0318771C39.0592 -0.768623 36.8465 13.743 25.8124 17.0631C25.1889 17.2506 23.6309 17.6473 23.793 16.4233C23.9749 15.0518 29.3286 13.7815 30.1423 8.93108C30.5606 6.43693 29.9106 5.60705 27.4112 6.1547C17.647 8.29395 6.93483 21.218 6.11081 30.7489C5.74928 34.9309 7.34128 40.2549 12.2534 40.6147C19.88 41.1733 25.4063 32.5694 30.313 28.2811C29.2559 23.877 30.7786 20.642 34.2817 17.7409C38.1563 14.5321 37.8292 19.9125 41.005 20.2155C42.7386 20.3807 45.555 18.8657 46.8256 17.7203C47.387 17.2143 48.3216 15.2785 49.1872 16.6942C49.9493 17.9406 47.9692 21.8696 47.5026 23.7977C49.6466 21.962 55.5747 11.6721 57.7155 15.2233C59.0706 17.4711 57.0991 21.4879 56.5597 23.7977C57.2897 22.525 62.9544 14.1139 64.8567 17.2881C65.7907 18.8463 64.3651 22.1698 63.9093 23.7977C65.3606 21.043 71.0891 13.3352 74.1061 15.6893C76.26 17.3698 71.4784 24.1348 72.0546 28.2811C73.9075 27.5932 76.5653 24.7905 78.0872 23.3805C78.162 20.0946 79.5471 16.3864 81.1546 13.5522C83.9161 16.6932 83.1585 16.7543 82.3169 20.4077C81.4364 24.2303 81.9846 26.225 85.4061 23.3305C88.3823 20.8127 89.0003 19.2043 90.2909 15.7354C90.6003 14.9036 90.9026 12.7063 92.1565 13.8647C93.0216 14.6639 92.4173 18.3989 91.8571 19.0227C93.5897 17.9723 99.0768 9.13165 101.885 12.4041C103.796 14.6309 101.285 18.0299 100.43 20.2211C100.165 20.8991 98.5009 25.7278 100.172 25.6122C101.241 25.5383 104.105 23.3383 104.783 22.521C104.845 21.8594 104.606 21.0247 104.591 20.3303C104.502 16.1989 108.563 8.99165 112.585 8.0352C114.435 7.59535 116.476 8.70453 116.847 10.6376C117.077 11.8346 115.319 11.8249 114.545 12.2159C112.084 13.4589 109.732 17.3577 108.973 19.8257C108.785 20.4387 108.811 21.3897 108.462 21.9098C111.491 21.2354 113.159 17.411 114.697 15.0653C118.061 9.93385 116.005 18.4942 115.807 19.6747C115.249 23.0007 114.803 26.3096 113.875 29.5624C116.584 30.4452 120.164 33.6843 119.548 36.8761C119.45 37.3835 118.976 38.6288 118.257 38.4241C117.155 38.1106 118.13 33.7097 113.177 32.1454L113.09 32.1183C113.344 32.7854 112.382 34.9362 112.141 35.669C110.21 41.5247 107.413 49.4872 102.993 53.8389C97.1259 59.6153 89.7023 53.8829 89.7728 46.4478C89.864 36.8591 100.808 28.6032 110.149 28.7325C110.512 28.3628 111.889 23.1169 111.818 22.521C111.477 24.03 107.629 25.7466 105.961 24.1995C105.667 23.9275 105.418 23.6112 105.087 23.3806C105.127 24.2114 100.499 30.1827 97.3159 26.7659C95.2548 24.5538 96.1593 20.1542 97.2339 17.6632C97.5481 16.9345 98.4597 15.7618 98.421 14.9829C98.2042 15.4177 96.9608 16.347 96.5411 16.7579C94.4685 18.7868 92.322 21.6534 91.5298 24.4855C91.3396 25.165 91.4458 26.5603 90.9636 27.0411C88.7798 27.4968 88.5025 24.971 87.6558 24.0181C87.5906 25.0794 81.7382 31.8634 78.4636 25.8654C76.5954 28.2208 71.0376 37.0126 68.029 30.2394C66.6677 27.1749 68.2384 23.3517 69.3558 20.4763C66.7425 22.8537 65.3495 27.2915 63.2978 28.6142C62.4171 29.1818 61.2999 29.0632 60.7413 28.1199C59.3723 25.8086 60.9311 23.1779 61.5022 20.9091C59.3444 22.7199 57.9669 25.5398 56.9735 28.1425C56.3007 29.9056 55.1315 33.3558 53.1835 30.1615C51.0265 26.6246 54.0964 21.4623 54.9585 17.8972C51.8409 20.0519 49.9999 23.8951 48.2823 27.1689C47.7917 28.1041 46.9911 30.1775 45.5891 29.5406C42.7403 28.2461 44.3429 23.2195 45.313 21.2423C43.8185 21.5787 42.3839 22.1732 40.8784 22.521C40.9368 28.0629 36.0678 35.136 31.093 29.9481ZM36.9756 21.2422C35.8708 22.8026 33.295 25.6711 33.6293 27.6026C33.8026 28.6033 34.3248 29.0108 35.3137 28.7559L35.402 28.7325C37.6637 28.0159 39.5301 24.845 38.7471 22.5252C38.644 22.2198 37.2922 21.5038 36.9756 21.2422ZM109.075 31.687C104.086 32.2167 98.8106 34.678 95.6188 38.6237C93.1092 41.726 90.858 47.296 93.2715 51.0667C93.4064 51.2774 93.6377 51.5272 93.7184 51.76C94.9316 52.6199 95.8592 53.2784 97.4221 52.9936C102.583 52.0536 107.167 38.3186 108.547 34.1956C108.74 33.6169 109.294 32.303 109.236 31.7413L109.075 31.687Z" fill="#A13F40"/>
<path d="M84.2159 11.979C81.3366 13.2327 78.6446 3.81256 82.1879 3.01646C86.4026 2.79868 87.2577 9.99616 84.2159 11.979Z" fill="#A13F40"/>
<path d="M77.2135 40.9459C78.9967 39.0631 83.129 31.9245 86.2131 34.1385C89.9006 36.7854 84.7934 45.6989 85.4024 49.3342C85.5375 50.1413 86.284 49.7616 86.7276 50.1237C87.8217 51.0168 84.4514 54.9344 81.9196 52.2159C78.1794 48.1996 83.2118 41.159 83.3897 37.0725C78.9887 39.7289 77.6469 45.7758 75.804 49.8903C74.4401 52.9352 70.7602 49.2815 72.967 41.6522C72.2018 41.8575 71.4737 41.9755 70.6829 42.0145C70.7034 45.5516 70.002 48.6366 67.1266 51.051C61.2821 55.0266 57.0092 50.0096 58.7594 43.7096C58.2393 43.6352 57.7194 43.5014 57.2051 43.3919C58.01 51.2885 48.8069 57.3055 45.6545 50.0741C42.3717 42.5434 52.8803 35.0417 54.5028 38.7176C54.7737 39.3319 55.7528 38.9024 56.3069 39.318C57.0065 39.8424 58.1389 42.1286 59.3407 41.5876C59.901 41.3352 62.8038 35.4725 66.5407 37.0362C66.8005 37.145 67.1881 37.437 67.2415 37.7302L67.3061 37.7296L67.36 37.8327C70.9672 37.5837 69.2913 42.0198 73.8578 38.5411C74.2799 37.6058 75.133 32.7124 76.8456 34.705C78.0811 36.1424 77.3528 39.2221 77.2135 40.9459ZM66.7977 40.1333C65.0379 42.0536 62.7415 44.9801 62.8563 47.7487C62.9006 48.8153 63.368 49.3729 64.4585 49.3081C68.0221 48.337 68.4163 44.7243 68.3616 41.6522C67.6971 41.2246 67.2553 40.7723 66.7977 40.1333ZM53.6264 40.9459C52.3114 42.2579 47.0625 50.594 51.0143 49.7227C54.701 48.3817 56.2581 43.7651 53.6264 40.9459Z" fill="#454545"/>
<path d="M26.2668 58.8553C23.0307 57.8739 18.4475 55.6489 17.4664 52.171C16.741 49.5993 22.52 53.6477 23.0473 53.8784C26.3041 55.3036 33.5428 54.419 35.8846 51.4526C38.15 48.5833 35.2225 46.5938 33.6797 44.4272C30.4914 39.9495 33.0354 35.5331 38.1598 34.9748C43.8963 34.3749 48.0254 38.3766 46.3088 39.3563C45.5199 39.8065 41.4069 37.0456 37.8057 39.2518C35.1799 40.8604 38.55 43.436 39.752 44.7032C49.0194 54.4753 36.2526 61.3285 26.2668 58.8553Z" fill="#454545"/>
</svg>
