<svg width="32" height="32" viewBox="0 0 32 32" fill="none" xmlns="http://www.w3.org/2000/svg">
<path d="M1.29302 21.1899C0.828113 21.0042 0.393645 20.8006 0 20.5902L1.29302 21.1899C5.65675 22.9327 12.7021 23.0966 13.8415 12.5246C21.0364 16.1311 27.9435 15.5803 32 2.36065L24.5996 32L1.29302 21.1899Z" fill="#A13F40"/>
<path d="M27.5461 6.68852C27.5461 10.3825 24.4169 13.377 20.5568 13.377C16.6967 13.377 13.5675 10.3825 13.5675 6.68852C13.5675 2.99455 16.6967 0 20.5568 0C24.4169 0 27.5461 2.99455 27.5461 6.68852Z" fill="#A13F40"/>
<path d="M11.1007 16.3279C11.1007 18.8992 8.9225 20.9836 6.23558 20.9836C3.54866 20.9836 1.37048 18.8992 1.37048 16.3279C1.37048 13.7566 3.54866 11.6721 6.23558 11.6721C8.9225 11.6721 11.1007 13.7566 11.1007 16.3279Z" fill="#A13F40"/>
</svg>
