<svg width="32" height="32" viewBox="0 0 32 32" fill="none" xmlns="http://www.w3.org/2000/svg">
<g clip-path="url(#clip0_2644_2378)">
<path d="M19 6C20.6819 6.4429 22.2161 7.32427 23.4459 8.55409C24.6757 9.78391 25.5571 11.3181 26 13" stroke="black" stroke-width="2" stroke-linecap="round" stroke-linejoin="round"/>
<path d="M18 10C20.065 10.5525 21.4475 11.935 22 14" stroke="black" stroke-width="2" stroke-linecap="round" stroke-linejoin="round"/>
<path d="M19.5488 19.1675C19.6872 19.0753 19.8465 19.0192 20.0122 19.0041C20.1779 18.989 20.3447 19.0156 20.4975 19.0812L26.3925 21.7225C26.5912 21.8074 26.757 21.9543 26.8651 22.1414C26.9733 22.3284 27.018 22.5454 26.9925 22.76C26.7983 24.2113 26.0836 25.5427 24.9813 26.5065C23.8791 27.4704 22.4642 28.0011 21 28C16.4913 28 12.1673 26.2089 8.97919 23.0208C5.79107 19.8327 4 15.5087 4 11C3.99888 9.53573 4.5296 8.12091 5.49345 7.01864C6.45731 5.91637 7.78869 5.20167 9.24 5.00747C9.45454 4.98199 9.67157 5.02666 9.8586 5.13482C10.0456 5.24299 10.1926 5.40881 10.2775 5.60747L12.9188 11.5075C12.9836 11.659 13.0101 11.8242 12.9957 11.9885C12.9813 12.1527 12.9265 12.3108 12.8363 12.4487L10.165 15.625C10.0702 15.768 10.0142 15.9331 10.0024 16.1042C9.99055 16.2753 10.0233 16.4466 10.0975 16.6012C11.1313 18.7175 13.3188 20.8787 15.4413 21.9025C15.5967 21.9763 15.7688 22.0084 15.9404 21.9954C16.112 21.9825 16.2773 21.925 16.42 21.8287L19.5488 19.1675Z" stroke="black" stroke-width="2" stroke-linecap="round" stroke-linejoin="round"/>
</g>
<defs>
<clipPath id="clip0_2644_2378">
<rect width="32" height="32" fill="white"/>
</clipPath>
</defs>
</svg>
